<svg width="48" height="35" viewBox="0 0 48 35" fill="none" xmlns="http://www.w3.org/2000/svg">
<path fill-rule="evenodd" clip-rule="evenodd" d="M35.6053 32.2739L38.9434 35L40.8334 32.6702L1.89 0.865723L0 3.19551L0.932685 3.95722C0.914908 4.06444 0.90566 4.17453 0.90566 4.28679V30.2739C0.90566 31.3784 1.80109 32.2739 2.90566 32.2739H35.6053ZM32.2673 29.5478L3.62264 6.15407V28.5478C3.62264 29.1 4.07036 29.5478 4.62265 29.5478H32.2673ZM38.9434 21.1026V28.1223L36.2264 25.8808V6.01288C36.2264 5.46059 35.7787 5.01288 35.2264 5.01288H10.9314L7.62697 2.28679H36.9434C38.0479 2.28679 38.9434 3.18222 38.9434 4.28679V14.3668L48 8.64769V26.8217L38.9434 21.1026Z" fill="black"/>
</svg>
