<svg width="48" height="30" viewBox="0 0 48 30" fill="none" xmlns="http://www.w3.org/2000/svg">
<path fill-rule="evenodd" clip-rule="evenodd" d="M0 2C0 0.89543 0.895431 0 2 0H36.1818C37.2864 0 38.1818 0.895431 38.1818 2V12.0852L47.2728 6.36364V24.5455L38.1818 18.8239V28C38.1818 29.1046 37.2864 30 36.1818 30H2C0.895434 30 0 29.1046 0 28V2ZM2.72727 3.72727C2.72727 3.17499 3.17499 2.72727 3.72727 2.72727H34.4545C35.0068 2.72727 35.4545 3.17499 35.4545 3.72727V26.2727C35.4545 26.825 35.0068 27.2727 34.4545 27.2727H3.72727C3.17499 27.2727 2.72727 26.825 2.72727 26.2727V3.72727Z" fill="black"/>
</svg>
