<svg width="35" height="34" viewBox="0 0 35 34" fill="none" xmlns="http://www.w3.org/2000/svg">
<path d="M32 26.1935C33.6567 26.1935 34.9998 27.5368 35 29.1935V30.6935C35 32.3503 33.6569 33.6935 32 33.6935H3C1.34315 33.6935 0 32.3503 0 30.6935V29.1935C0.000225628 27.5368 1.34329 26.1935 3 26.1935H32ZM15.9072 0.790165C16.7076 -0.263388 18.2924 -0.263388 19.0928 0.790165L25.8867 9.7345C26.8869 11.0514 25.9476 12.9435 24.2939 12.9435H22V20.6935C22 22.3503 20.6569 23.6935 19 23.6935H16C14.3431 23.6935 13 22.3503 13 20.6935V12.9435H10.7061C9.05236 12.9435 8.11313 11.0514 9.11328 9.7345L15.9072 0.790165Z" fill="#8C7AA2"/>
</svg>
