<svg width="831" height="300" viewBox="0 0 831 300" fill="none" xmlns="http://www.w3.org/2000/svg">
<path d="M237.285 132.107C233.646 142.397 227.385 152.989 219.177 162.263M172.594 85.2833C177.965 92.2987 172.594 119.264 155.805 120.434C144.447 121.226 134.053 104.564 132.101 113.625C129.577 125.347 131.366 133.241 135.219 138.422M172.594 85.2833C169.593 83.0464 164.016 78.8025 155.805 76.2069M172.594 85.2833C179.833 90.6788 184.737 99.2211 186.55 108.275M178.52 138.422C174.558 142.301 169.18 145.246 162.224 146.699C154.86 148.237 141.919 147.43 135.219 138.422M178.52 138.422C179.014 141.835 183.459 170.121 203.211 176.649M178.52 138.422C186.47 130.639 188.716 119.092 186.55 108.275M203.211 176.649C209.091 172.495 214.456 167.597 219.177 162.263M203.211 176.649C194.086 183.096 183.72 187.75 172.594 189.46M135.219 138.422C126.121 136.804 106.243 137.555 99.5191 153.508M99.5191 153.508C100.42 154.867 101.404 156.167 102.472 157.399C108.375 164.206 114.318 169.81 120.25 174.34M99.5191 153.508C95.4132 147.313 93.0403 139.891 92.329 132.107M240.742 113.625C241.106 108.273 240.943 101.963 240.021 95.1429M145.434 11C155.447 11.8138 164.471 13.5048 172.594 15.9034M125.682 11C104.559 14.2454 73.1414 25.4355 48.6839 48.4509M219.177 162.263L287.161 224.519C295.864 233.091 299.833 235.601 299.995 240.724C300.002 240.938 299.931 241.149 299.803 241.321C273.78 276.243 223.901 287.215 184.446 288.792M172.594 189.46C168.479 211.408 165.088 262.002 184.446 288.792M172.594 189.46C156.274 191.968 138.32 188.141 120.25 174.34M184.446 288.792C169.24 289.4 155.582 288.612 145.434 287.261C126.278 284.294 97.6769 274.687 71.8553 255.475M120.25 174.34C102.801 188.52 68.6948 224.598 71.8553 255.475M71.8553 255.475C43.4999 234.377 18.4968 201.697 13.0352 153.508M92.329 132.107C72.1342 129.351 28.0028 129.773 13.0352 153.508M92.329 132.107C90.7927 115.295 97.0068 96.7903 110.251 85.2833M13.0352 153.508C12.8714 152.063 12.7252 150.604 12.5969 149.131C8.55906 102.732 25.4923 70.275 48.6839 48.4509M110.251 85.2833C117.145 79.2936 125.944 75.2 136.546 74.2287C144.078 73.5385 150.493 74.5278 155.805 76.2069M110.251 85.2833C100.441 72.5195 74.3931 47.2836 48.6839 48.4509M155.805 76.2069C164.858 64.2252 180.891 35.3901 172.594 15.9034M172.594 15.9034C219.26 29.6824 236.19 66.8123 240.021 95.1429M186.55 108.275C198.866 109.248 226.802 107.983 240.021 95.1429" stroke="#8C7AA2" stroke-width="15"/>
<path d="M372.92 94.845C372.92 103.99 369.515 110.743 362.704 115.105C355.932 119.467 347.61 121.648 337.738 121.648C335.94 121.648 334.658 121.609 333.893 121.533C333.893 128.726 334.103 138.215 334.524 150H318.397C318.894 138.942 319.143 125.914 319.143 110.915C319.143 97.1408 318.894 85.2604 318.397 75.2739H328.383C329.799 75.2739 332.515 75.2165 336.533 75.1018C340.55 74.987 344.032 74.9296 346.978 74.9296C354.248 74.9296 360.389 76.5748 365.402 79.8654C370.414 83.1559 372.92 88.1492 372.92 94.845ZM358.113 98.0017C358.113 89.8136 352.679 85.7195 341.813 85.7195C339.096 85.7195 336.227 86.0065 333.204 86.5804C333.625 93.812 333.835 102 333.835 111.145C334.792 111.221 335.902 111.26 337.164 111.26C351.13 111.26 358.113 106.84 358.113 98.0017ZM437.143 121.476C437.143 131.118 434.178 138.655 428.247 144.088C422.317 149.522 415.334 152.238 407.299 152.238C399.646 152.238 393.084 149.77 387.613 144.835C382.141 139.861 379.406 132.878 379.406 123.886C379.406 114.206 382.39 106.63 388.359 101.158C394.328 95.6868 401.33 92.9511 409.365 92.9511C416.979 92.9511 423.503 95.4572 428.936 100.47C434.408 105.444 437.143 112.446 437.143 121.476ZM422.164 123.197C422.164 117.649 420.863 113 418.261 109.251C415.659 105.463 412.273 103.569 408.102 103.569C404.046 103.569 400.737 105.329 398.173 108.849C395.648 112.369 394.385 116.769 394.385 122.049C394.385 127.597 395.686 132.265 398.288 136.053C400.89 139.803 404.276 141.678 408.447 141.678C412.502 141.678 415.793 139.918 418.318 136.398C420.882 132.878 422.164 128.478 422.164 123.197ZM515.772 150H500.907C500.907 143.993 500.85 135.862 500.735 125.608C500.659 115.354 500.62 108.983 500.62 106.496H499.587C498.822 109.251 496.297 116.214 492.011 127.387C487.726 138.56 485.583 146.097 485.583 150H472.555C472.555 145.638 470.986 138.923 467.849 129.855C464.711 120.749 462.262 112.962 460.502 106.496H459.527C459.527 109.059 459.316 116.023 458.895 127.387C458.474 138.713 458.264 146.25 458.264 150H445.178C445.178 148.89 445.886 140.76 447.302 125.608C448.718 110.418 449.425 100.374 449.425 95.4764H470.489C470.489 99.8765 472.191 107.414 475.597 118.089C479.002 128.764 480.705 135.173 480.705 137.316H481.279C481.279 135.135 483.077 128.707 486.674 118.032C490.309 107.357 492.126 99.8383 492.126 95.4764H513.476C513.476 100.374 513.859 110.284 514.624 125.206C515.389 140.09 515.772 148.355 515.772 150ZM582.75 122.566C582.75 132.132 579.727 139.478 573.682 144.605C567.675 149.694 560.443 152.238 551.987 152.238C541.81 152.238 534.712 149.158 530.694 142.998C526.677 136.8 524.668 126.794 524.668 112.981C524.668 105.75 525.414 99.5896 526.906 94.5007C528.399 89.4118 530.694 85.203 533.794 81.8742C536.931 78.5453 540.891 76.0009 545.674 74.2409C550.457 72.4425 556.139 71.2181 562.72 70.5677C564.786 70.3764 567.024 70.0894 569.435 69.7068C571.884 69.2859 574.715 68.865 577.929 68.4441L577.24 81.3002C576.246 81.415 574.371 81.6446 571.616 81.9889C568.861 82.3333 565.398 82.7733 561.228 83.309C557.669 83.7681 554.474 84.3803 551.643 85.1456C548.85 85.8726 546.458 86.9822 544.469 88.4744C542.517 89.9666 540.987 91.9562 539.877 94.4433C538.806 96.9303 538.194 100.163 538.041 104.143H538.615C542.977 99.0921 548.869 96.5668 556.292 96.5668C563.982 96.5668 570.315 98.6713 575.289 102.88C580.263 107.089 582.75 113.651 582.75 122.566ZM567.885 124.345C567.885 119.371 566.642 115.277 564.155 112.063C561.706 108.811 558.167 107.185 553.537 107.185C546.994 107.185 541.924 109.442 538.328 113.957C538.366 124.211 539.571 131.405 541.943 135.537C544.316 139.631 547.97 141.678 552.906 141.678C557.459 141.678 561.094 140.033 563.81 136.742C566.527 133.452 567.885 129.319 567.885 124.345ZM642.324 116.884C642.324 118.835 642.21 121.38 641.98 124.517L605.019 125.149C605.554 129.472 607.41 133.069 610.586 135.939C613.762 138.808 617.932 140.243 623.098 140.243C628.837 140.243 634.94 139.382 641.406 137.66L640.258 148.795C634.978 150.708 628.435 151.664 620.63 151.664C610.758 151.664 603.182 148.89 597.902 143.342C592.66 137.794 590.039 131.118 590.039 123.312C590.039 115.162 592.526 108.103 597.5 102.134C602.513 96.1268 609.457 93.1232 618.334 93.1232C626.446 93.1232 632.472 95.3233 636.413 99.7235C640.354 104.124 642.324 109.844 642.324 116.884ZM628.894 116.368C628.894 107.567 625.145 103.167 617.645 103.167C610.49 103.167 606.243 107.72 604.904 116.827L628.894 116.368ZM708.097 120.385C708.097 128.688 705.725 135.977 700.98 142.252C696.236 148.527 689.75 151.664 681.524 151.664C675.402 151.664 671.193 150.363 668.897 147.762H668.209C668.209 157.136 668.343 166.625 668.61 176.229H652.999C653.688 165.247 654.033 152.583 654.033 138.234C654.033 119.715 653.038 105.597 651.048 95.8781L665.741 94.2711L666.602 99.2069H667.52C671.614 95.419 677.181 93.525 684.221 93.525C691.568 93.525 697.384 96.1842 701.669 101.503C705.954 106.783 708.097 113.077 708.097 120.385ZM692.83 121.877C692.83 117.056 691.625 112.905 689.215 109.423C686.804 105.941 683.475 104.2 679.228 104.2C673.948 104.2 670.084 105.75 667.635 108.849C668.209 119.601 668.496 129.453 668.496 138.407C670.906 140.281 674.025 141.219 677.851 141.219C682.94 141.219 686.708 139.344 689.157 135.594C691.606 131.806 692.83 127.234 692.83 121.877ZM759.062 95.4764L758.718 107.701C756.001 107.395 747.45 107.07 733.063 106.725C733.293 113.307 733.407 118.855 733.407 123.37C733.407 133.203 733.656 142.08 734.154 150H718.887C719.423 142.08 719.69 132.992 719.69 122.738C719.69 112.56 719.423 103.473 718.887 95.4764H759.062ZM821.908 121.476C821.908 131.118 818.943 138.655 813.012 144.088C807.081 149.522 800.098 152.238 792.063 152.238C784.411 152.238 777.849 149.77 772.378 144.835C766.906 139.861 764.17 132.878 764.17 123.886C764.17 114.206 767.155 106.63 773.124 101.158C779.093 95.6868 786.095 92.9511 794.13 92.9511C801.744 92.9511 808.267 95.4572 813.701 100.47C819.172 105.444 821.908 112.446 821.908 121.476ZM806.928 123.197C806.928 117.649 805.627 113 803.026 109.251C800.424 105.463 797.038 103.569 792.867 103.569C788.811 103.569 785.501 105.329 782.938 108.849C780.413 112.369 779.15 116.769 779.15 122.049C779.15 127.597 780.451 132.265 783.053 136.053C785.655 139.803 789.041 141.678 793.211 141.678C797.267 141.678 800.558 139.918 803.083 136.398C805.647 132.878 806.928 128.478 806.928 123.197ZM399.841 255V207.131H418.178C423.467 207.131 427.728 208.072 430.96 209.952C434.193 211.833 435.809 214.948 435.809 219.297C435.809 221.941 435.104 224.116 433.693 225.82C432.283 227.525 430.343 228.759 427.875 229.523V229.876C430.637 230.463 432.988 231.668 434.927 233.49C436.926 235.253 437.925 237.868 437.925 241.336C437.925 244.509 437.102 247.095 435.456 249.094C433.869 251.092 431.666 252.59 428.845 253.59C426.024 254.53 422.762 255 419.059 255H399.841ZM407.775 249.27H418.09C422.086 249.27 425.054 248.535 426.993 247.066C428.991 245.597 429.991 243.51 429.991 240.807C429.991 238.397 428.933 236.487 426.817 235.077C424.76 233.666 421.704 232.961 417.649 232.961H407.775V249.27ZM407.775 227.231H416.855C420.852 227.231 423.702 226.584 425.406 225.291C427.111 223.94 427.963 222.177 427.963 220.002C427.963 217.769 427.14 216.035 425.495 214.801C423.849 213.508 421.146 212.861 417.384 212.861H407.775V227.231ZM469.254 256.146C465.022 256.146 461.173 255.176 457.705 253.237C454.238 251.239 451.476 248.359 449.419 244.598C447.362 240.836 446.333 236.34 446.333 231.11C446.333 225.879 447.362 221.383 449.419 217.622C451.476 213.86 454.12 210.981 457.353 208.983C460.644 206.926 464.111 205.897 467.755 205.897C473.867 205.897 478.569 207.954 481.86 212.068C485.21 216.123 486.885 221.559 486.885 228.377C486.885 229.258 486.856 230.081 486.797 230.845C486.738 231.609 486.65 232.314 486.532 232.961H454.267C454.561 238.074 456.148 242.159 459.028 245.215C461.907 248.212 465.61 249.711 470.135 249.711C472.486 249.711 474.602 249.387 476.483 248.741C478.422 248.036 480.303 247.095 482.125 245.92L484.946 251.297C482.889 252.649 480.567 253.795 477.981 254.736C475.395 255.676 472.486 256.146 469.254 256.146ZM454.179 227.231H479.833C479.833 222.353 478.775 218.65 476.659 216.123C474.602 213.596 471.693 212.332 467.931 212.332C464.523 212.332 461.496 213.625 458.851 216.211C456.207 218.797 454.649 222.47 454.179 227.231ZM493.295 271.926L492.502 253.501V248.476H494.794C495.734 247.948 496.586 247.125 497.35 246.008C498.114 244.833 498.849 242.893 499.554 240.19C500.259 237.428 500.935 233.49 501.582 228.377L504.138 207.131H533.759V248.476H540.723V253.501L539.93 271.926H532.965V255H500.259V271.926H493.295ZM503.345 248.476H525.736V213.655H510.485L508.634 229.876C508.105 234.636 507.371 238.515 506.43 241.512C505.549 244.451 504.52 246.772 503.345 248.476ZM570.409 256.146C566.178 256.146 562.329 255.176 558.861 253.237C555.394 251.239 552.631 248.359 550.574 244.598C548.517 240.836 547.489 236.34 547.489 231.11C547.489 225.879 548.517 221.383 550.574 217.622C552.631 213.86 555.276 210.981 558.508 208.983C561.8 206.926 565.267 205.897 568.911 205.897C575.023 205.897 579.725 207.954 583.016 212.068C586.366 216.123 588.041 221.559 588.041 228.377C588.041 229.258 588.011 230.081 587.953 230.845C587.894 231.609 587.806 232.314 587.688 232.961H555.423C555.717 238.074 557.304 242.159 560.183 245.215C563.063 248.212 566.766 249.711 571.291 249.711C573.642 249.711 575.758 249.387 577.638 248.741C579.578 248.036 581.458 247.095 583.28 245.92L586.101 251.297C584.044 252.649 581.723 253.795 579.137 254.736C576.551 255.676 573.642 256.146 570.409 256.146ZM555.335 227.231H580.988C580.988 222.353 579.93 218.65 577.815 216.123C575.758 213.596 572.848 212.332 569.087 212.332C565.678 212.332 562.652 213.625 560.007 216.211C557.362 218.797 555.805 222.47 555.335 227.231ZM599.828 255V207.131H607.938V226.614H630.947V207.131H638.969V255H630.947V233.666H607.938V255H599.828ZM655.27 255V207.131H663.38V224.762H672.372C678.073 224.762 682.657 225.967 686.125 228.377C689.651 230.728 691.414 234.518 691.414 239.749C691.414 245.038 689.651 248.917 686.125 251.386C682.657 253.795 678.073 255 672.372 255H655.27ZM663.38 248.565H671.491C675.546 248.565 678.543 247.859 680.483 246.449C682.481 245.038 683.48 242.805 683.48 239.749C683.48 233.931 679.484 231.022 671.491 231.022H663.38V248.565ZM722.961 256.146C718.729 256.146 714.88 255.176 711.412 253.237C707.945 251.239 705.183 248.359 703.126 244.598C701.069 240.836 700.04 236.34 700.04 231.11C700.04 225.879 701.069 221.383 703.126 217.622C705.183 213.86 707.827 210.981 711.06 208.983C714.351 206.926 717.818 205.897 721.462 205.897C727.574 205.897 732.276 207.954 735.567 212.068C738.917 216.123 740.592 221.559 740.592 228.377C740.592 229.258 740.563 230.081 740.504 230.845C740.445 231.609 740.357 232.314 740.239 232.961H707.974C708.268 238.074 709.855 242.159 712.735 245.215C715.615 248.212 719.317 249.711 723.842 249.711C726.193 249.711 728.309 249.387 730.19 248.741C732.129 248.036 734.01 247.095 735.832 245.92L738.653 251.297C736.596 252.649 734.274 253.795 731.688 254.736C729.102 255.676 726.193 256.146 722.961 256.146ZM707.886 227.231H733.54C733.54 222.353 732.482 218.65 730.366 216.123C728.309 213.596 725.4 212.332 721.639 212.332C718.23 212.332 715.203 213.625 712.558 216.211C709.914 218.797 708.356 222.47 707.886 227.231Z" fill="#8C7AA2"/>
</svg>
