<svg width="300" height="300" viewBox="0 0 300 300" fill="none" xmlns="http://www.w3.org/2000/svg">
<path d="M231.849 132.464C228.185 143.123 221.88 154.096 213.615 163.704M166.71 83.9554C172.117 91.2231 166.71 119.158 149.803 120.371C138.367 121.191 127.9 103.93 125.935 113.317C123.393 125.46 125.195 133.638 129.075 139.006M166.71 83.9554C163.688 81.638 158.072 77.2414 149.803 74.5525M166.71 83.9554C173.998 89.5449 178.937 98.3945 180.762 107.774M172.677 139.006C168.687 143.024 163.271 146.075 156.267 147.58C148.852 149.174 135.821 148.338 129.075 139.006M172.677 139.006C173.174 142.541 177.649 171.845 197.539 178.607M172.677 139.006C180.682 130.942 182.943 118.98 180.762 107.774M197.539 178.607C203.46 174.304 208.862 169.23 213.615 163.704M197.539 178.607C188.351 185.286 177.913 190.108 166.71 191.88M129.075 139.006C119.913 137.329 99.8975 138.107 93.1269 154.634M93.1269 154.634C94.0338 156.042 95.0247 157.389 96.1004 158.665C102.044 165.717 108.029 171.523 114.001 176.216M93.1269 154.634C88.9925 148.216 86.6031 140.528 85.8868 132.464M235.33 113.317C235.697 107.772 235.533 101.235 234.604 94.1696M139.361 7C149.443 7.84312 158.53 9.59493 166.71 12.0798M119.471 7C98.202 10.3622 66.566 21.9548 41.9387 45.798M213.615 163.704L282.072 228.199C290.846 237.09 294.841 239.687 294.995 245.007C295.001 245.216 294.934 245.423 294.811 245.593C268.61 281.781 218.378 293.151 178.644 294.785M166.71 191.88C162.566 214.617 159.152 267.03 178.644 294.785M166.71 191.88C150.276 194.478 132.197 190.513 114.001 176.216M178.644 294.785C163.332 295.414 149.579 294.598 139.361 293.199C120.072 290.125 91.2719 280.172 65.2709 260.269M114.001 176.216C96.4319 190.905 62.0885 228.282 65.2709 260.269M65.2709 260.269C36.7186 238.412 11.5419 204.557 6.04234 154.634M85.8868 132.464C65.5518 129.609 21.114 130.045 6.04234 154.634M85.8868 132.464C84.3398 115.047 90.5971 95.8762 103.933 83.9554M6.04234 154.634C5.87742 153.137 5.73019 151.625 5.60109 150.099C1.53517 102.032 18.586 68.4072 41.9387 45.798M103.933 83.9554C110.875 77.7502 119.735 73.5094 130.411 72.5031C137.995 71.7881 144.454 72.813 149.803 74.5525M103.933 83.9554C94.0548 70.7324 67.8264 44.5887 41.9387 45.798M149.803 74.5525C158.919 62.1398 175.063 32.2674 166.71 12.0798M166.71 12.0798C213.699 26.3544 230.747 64.8199 234.604 94.1696M180.762 107.774C193.164 108.782 221.294 107.472 234.604 94.1696" stroke="#8C7AA2" stroke-width="10"/>
</svg>
